<?xml version="1.0" ?>

<!DOCTYPE svg  PUBLIC '-//W3C//DTD SVG 1.1//EN'  'http://www.w3.org/Graphics/SVG/1.1/DTD/svg11.dtd'>

<!-- Uploaded to: SVG Repo, www.svgrepo.com, Generator: SVG Repo Mixer Tools -->
<svg fill="#1C9CF6" width="800px" height="800px" viewBox="0 0 64 64" style="fill-rule:evenodd;clip-rule:evenodd;stroke-linejoin:round;stroke-miterlimit:2;" version="1.1" xml:space="preserve" xmlns="http://www.w3.org/2000/svg" xmlns:serif="http://www.serif.com/" xmlns:xlink="http://www.w3.org/1999/xlink">

<g id="ICON">

<path d="M59,43l-54,0l-0,-9c-0,-0.552 -0.448,-1 -1,-1c-0.552,-0 -1,0.448 -1,1c-0,5.651 -0,11.154 -0,14c-0,0.796 0.316,1.559 0.879,2.121c0.562,0.563 1.325,0.879 2.121,0.879l4,0c0.552,0 1,-0.448 1,-1c-0,-0.552 -0.448,-1 -1,-1l-4,0c-0.265,-0 -0.52,-0.105 -0.707,-0.293c-0.188,-0.187 -0.293,-0.442 -0.293,-0.707l-0,-3l54,0l-0,3c0,0.265 -0.105,0.52 -0.293,0.707c-0.187,0.188 -0.442,0.293 -0.707,0.293l-44,0c-0.552,0 -1,0.448 -1,1c0,0.552 0.448,1 1,1l12.606,0c-0.16,2.682 -0.855,6.147 -3.417,8l-1.689,0c-0.552,-0 -1,0.448 -1,1c-0,0.552 0.448,1 1,1l21,0c0.552,-0 1,-0.448 1,-1c-0,-0.552 -0.448,-1 -1,-1l-1.689,0c-2.562,-1.854 -3.257,-5.318 -3.417,-8l20.606,0c0.796,-0 1.559,-0.316 2.121,-0.879c0.563,-0.562 0.879,-1.325 0.879,-2.121c-0,-6.028 -0,-23.972 -0,-30c0,-0.796 -0.316,-1.559 -0.879,-2.121c-0.562,-0.563 -1.325,-0.879 -2.121,-0.879l-11,0c-0.552,0 -1,0.448 -1,1c0,0.552 0.448,1 1,1l11,-0c0.265,0 0.52,0.105 0.707,0.293c0.188,0.187 0.293,0.442 0.293,0.707l-0,25Zm-23.606,8l-6.788,0c-0.155,2.531 -0.785,5.68 -2.585,8l11.958,0c-1.8,-2.32 -2.43,-5.47 -2.585,-8Zm-6.394,-9l6.5,0c0.552,0 1,-0.448 1,-1c0,-0.552 -0.448,-1 -1,-1l-6.5,0c-0.552,0 -1,0.448 -1,1c0,0.552 0.448,1 1,1Zm-22,-4l0,2c0,0.552 0.448,1 1,1c0.552,-0 1,-0.448 1,-1l0,-2c0,-0.552 -0.448,-1 -1,-1c-0.552,-0 -1,0.448 -1,1Zm20.5,1l9.5,0c0.552,-0 1,-0.448 1,-1c-0,-0.552 -0.448,-1 -1,-1l-9.5,0c-0.552,-0 -1,0.448 -1,1c-0,0.552 0.448,1 1,1Zm2.501,-3l-3.406,0c-0.261,0 -0.511,-0.102 -0.698,-0.284c-3.344,-3.257 -6.897,-8.272 -6.897,-14.756c0,-7.152 5.824,-12.96 13,-12.96c7.176,0 13,5.808 13,12.96c-0,6.484 -3.553,11.499 -6.897,14.756c-0.187,0.182 -0.437,0.284 -0.698,0.284l-3.405,0c0,0 -1,-0.003 -1,-1l0,-11l-2,0l0,10.999c0,0.652 -0.447,1.001 -0.999,1.001Zm-21.001,-1l0,-13c0,-0.552 -0.448,-1 -1,-1c-0.552,-0 -1,0.448 -1,1l0,13c0,0.552 0.448,1 1,1c0.552,-0 1,-0.448 1,-1Zm26,-1c0.871,-0 1.995,-0 1.995,-0c2.941,-2.949 6.005,-7.36 6.005,-13.04c0,-6.05 -4.93,-10.96 -11,-10.96c-6.07,0 -11,4.91 -11,10.96c-0,5.68 3.064,10.091 6.005,13.04l1.995,0l0,-10l-2,0c-2.208,0 -4,-1.792 -4,-4c0,-2.208 1.792,-4 4,-4c2.208,0 4,1.792 4,4l0,2l2,0l0,-2c0,-2.208 1.792,-4 4,-4c2.208,0 4,1.792 4,4c0,2.208 -1.792,4 -4,4l-2,0l0,10Zm-18,-19l-11,0c-0.796,0 -1.559,0.316 -2.121,0.879c-0.563,0.562 -0.879,1.325 -0.879,2.121c-0,2.509 -0,7.081 -0,12c-0,0.552 0.448,1 1,1c0.552,0 1,-0.448 1,-1l-0,-12c-0,-0.265 0.105,-0.52 0.293,-0.707c0.187,-0.188 0.442,-0.293 0.707,-0.293c0,0 11,0 11,0c0.552,0 1,-0.448 1,-1c0,-0.552 -0.448,-1 -1,-1Zm18,7l2,0c1.104,0 2,-0.896 2,-2c0,-1.104 -0.896,-2 -2,-2c-1.104,0 -2,0.896 -2,2l0,2Zm-6,0l0,-2c0,-1.104 -0.896,-2 -2,-2c-1.104,0 -2,0.896 -2,2c0,1.104 0.896,2 2,2l2,0Zm-2.509,-14.792l-1,-1.732c-0.276,-0.478 -0.888,-0.642 -1.366,-0.366c-0.478,0.276 -0.642,0.888 -0.366,1.366l1,1.732c0.276,0.478 0.888,0.642 1.366,0.366c0.478,-0.276 0.642,-0.888 0.366,-1.366Zm12.75,1l1,-1.732c0.276,-0.478 0.112,-1.09 -0.366,-1.366c-0.478,-0.276 -1.09,-0.112 -1.366,0.366l-1,1.732c-0.276,0.478 -0.112,1.09 0.366,1.366c0.478,0.276 1.09,0.112 1.366,-0.366Zm-6.241,-2.208l0,-2c0,-0.552 -0.448,-1 -1,-1c-0.552,-0 -1,0.448 -1,1l0,2c0,0.552 0.448,1 1,1c0.552,-0 1,-0.448 1,-1Z"/>

</g>

</svg>